<svg xmlns="http://www.w3.org/2000/svg" width="690" height="690" viewBox="0 0 690 690">
  <g fill="none" fill-rule="evenodd" transform="translate(1 1)">
    <circle cx="344" cy="344" r="344" fill="#000" stroke="#000"/>
    <path fill="#FFF" stroke="#FFF" d="M470.109091 582.254545L470.109091 510.909091C470.109091 506.654545 468.8 503.381818 466.181818 500.763636 463.563636 498.145455 459.963636 496.836364 456.036364 496.836364L413.163636 496.836364 413.163636 268.072727C413.163636 263.818182 411.854545 260.545455 409.236364 257.927273 406.618182 255.309091 403.018182 254 399.090909 254L256.072727 254C251.818182 254 248.545455 255.309091 245.927273 257.927273 243.309091 260.545455 242 264.145455 242 268.072727L242 339.418182C242 343.672727 243.309091 346.945455 245.927273 349.563636 248.545455 352.181818 252.145455 353.490909 256.072727 353.490909L298.945455 353.490909 298.945455 496.509091 256.072727 496.509091C251.818182 496.509091 248.545455 497.818182 245.927273 500.436364 243.309091 503.054545 242 506.654545 242 510.581818L242 581.927273C242 586.181818 243.309091 589.454545 245.927273 592.072727 248.545455 594.690909 252.145455 596 256.072727 596L456.036364 596C460.290909 596 463.563636 594.690909 466.181818 592.072727 468.8 589.781818 470.109091 586.509091 470.109091 582.254545zM395.065789 173.299342L395.065789 93.7006579C395.065789 88.9539474 393.605263 85.3026316 390.684211 82.3815789 387.763158 79.4605263 383.746711 78 379.365132 78L283.700658 78C278.953947 78 275.302632 79.4605263 272.381579 82.3815789 269.460526 85.3026316 268 89.3190789 268 93.7006579L268 173.299342C268 178.046053 269.460526 181.697368 272.381579 184.618421 275.302632 187.539474 279.319079 189 283.700658 189L379.365132 189C384.111842 189 387.763158 187.539474 390.684211 184.618421 393.605263 182.0625 395.065789 178.046053 395.065789 173.299342z"/>
  </g>
</svg>
