<?xml version="1.0" encoding="utf-8"?>
<!-- Generator: Adobe Illustrator 21.0.2, SVG Export Plug-In . SVG Version: 6.00 Build 0)  -->
<svg version="1.1" id="Layer_1" xmlns="http://www.w3.org/2000/svg" xmlns:xlink="http://www.w3.org/1999/xlink" x="0px" y="0px"
	 viewBox="0 0 300 300" style="enable-background:new 0 0 300 300;" xml:space="preserve">
<g>
	<path d="M245.9,91.6c9.4,16.1,14.1,33.6,14.1,52.6c0,19-4.7,36.5-14.1,52.6c-9.4,16.1-22.1,28.8-38.1,38.1
		c-16.1,9.4-33.6,14.1-52.6,14.1c-19,0-36.5-4.7-52.6-14.1c-16.1-9.4-28.8-22.1-38.1-38.1c-9.4-16.1-14.1-33.6-14.1-52.6
		c0-19,4.7-36.5,14.1-52.6c9.4-16.1,22.1-28.8,38.1-38.1c16.1-9.4,33.6-14.1,52.6-14.1c19,0,36.5,4.7,52.6,14.1
		C223.9,62.8,236.6,75.6,245.9,91.6z M190.1,209.7v-21.8c0-1.3-0.4-2.3-1.2-3.1c-0.8-0.8-1.9-1.2-3.1-1.2h-13.1v-69.9
		c0-1.3-0.4-2.3-1.2-3.1c-0.8-0.8-1.9-1.2-3.1-1.2h-43.7c-1.3,0-2.3,0.4-3.1,1.2c-0.8,0.8-1.2,1.9-1.2,3.1v21.8
		c0,1.3,0.4,2.3,1.2,3.1c0.8,0.8,1.9,1.2,3.1,1.2h13.1v43.7h-13.1c-1.3,0-2.3,0.4-3.1,1.2c-0.8,0.8-1.2,1.9-1.2,3.1v21.8
		c0,1.3,0.4,2.3,1.2,3.1c0.8,0.8,1.9,1.2,3.1,1.2h61.1c1.3,0,2.3-0.4,3.1-1.2C189.7,212,190.1,211,190.1,209.7z M172.7,87.4V65.6
		c0-1.3-0.4-2.3-1.2-3.1c-0.8-0.8-1.9-1.2-3.1-1.2h-26.2c-1.3,0-2.3,0.4-3.1,1.2c-0.8,0.8-1.2,1.9-1.2,3.1v21.8
		c0,1.3,0.4,2.3,1.2,3.1s1.9,1.2,3.1,1.2h26.2c1.3,0,2.3-0.4,3.1-1.2C172.3,89.8,172.7,88.7,172.7,87.4z"/>
</g>
</svg>
